<svg xmlns="http://www.w3.org/2000/svg" width="21.371" height="21.371" viewBox="0 0 21.371 21.371">
    <path fill="#006a71" d="M10.685 0C7.783 0 7.42.013 6.28.064a7.879 7.879 0 0 0-2.594.5 5.233 5.233 0 0 0-1.893 1.229A5.214 5.214 0 0 0 .561 3.687a7.856 7.856 0 0 0-.5 2.594C.011 7.42 0 7.783 0 10.686s.013 3.265.064 4.405a7.884 7.884 0 0 0 .5 2.594 5.24 5.24 0 0 0 1.232 1.893 5.225 5.225 0 0 0 1.89 1.232 7.889 7.889 0 0 0 2.594.5c1.14.053 1.5.064 4.405.064s3.265-.013 4.405-.064a7.907 7.907 0 0 0 2.594-.5 5.461 5.461 0 0 0 3.126-3.126 7.884 7.884 0 0 0 .5-2.594c.053-1.14.064-1.5.064-4.405s-.013-3.265-.064-4.405a7.9 7.9 0 0 0-.5-2.594 5.244 5.244 0 0 0-1.232-1.893A5.206 5.206 0 0 0 17.684.561a7.861 7.861 0 0 0-2.594-.5C13.951.011 13.588 0 10.685 0zm0 1.923c2.852 0 3.192.014 4.319.063a5.887 5.887 0 0 1 1.983.37 3.516 3.516 0 0 1 2.028 2.028 5.9 5.9 0 0 1 .368 1.983c.051 1.127.062 1.466.062 4.319s-.013 3.192-.065 4.314a6.013 6.013 0 0 1-.375 1.983 3.393 3.393 0 0 1-.8 1.231 3.334 3.334 0 0 1-1.229.8 5.943 5.943 0 0 1-1.99.368c-1.134.051-1.468.062-4.327.062s-3.193-.013-4.327-.066a6.059 6.059 0 0 1-1.991-.375 3.309 3.309 0 0 1-1.228-.8 3.245 3.245 0 0 1-.8-1.229 6.064 6.064 0 0 1-.374-1.99c-.04-1.122-.054-1.468-.054-4.313s.014-3.193.054-4.329a6.057 6.057 0 0 1 .374-1.989 3.168 3.168 0 0 1 .8-1.23 3.161 3.161 0 0 1 1.228-.8 5.914 5.914 0 0 1 1.978-.373c1.135-.04 1.469-.05 4.326-.05l.04.027zm0 3.275a5.487 5.487 0 1 0 5.487 5.487A5.487 5.487 0 0 0 10.685 5.2zm0 9.049a3.562 3.562 0 1 1 3.562-3.562 3.561 3.561 0 0 1-3.562 3.562zm6.987-9.265A1.282 1.282 0 1 1 16.39 3.7a1.283 1.283 0 0 1 1.282 1.282z"/>
</svg>
