<svg xmlns="http://www.w3.org/2000/svg" width="21.371" height="21.371" viewBox="0 0 21.371 21.371">
    <path fill="#006a71" d="M19.845 2.25H1.522A1.533 1.533 0 0 0 0 3.791V22.08a1.533 1.533 0 0 0 1.522 1.541h18.323a1.537 1.537 0 0 0 1.527-1.541V3.791a1.537 1.537 0 0 0-1.527-1.541zM6.459 20.568H3.292v-10.2h3.172v10.2zM4.875 8.976A1.837 1.837 0 1 1 6.712 7.14a1.837 1.837 0 0 1-1.837 1.836zm13.457 11.592h-3.167v-4.961c0-1.183-.024-2.7-1.646-2.7-1.651 0-1.9 1.288-1.9 2.619v5.047H8.448v-10.2h3.039v1.393h.043a3.336 3.336 0 0 1 3-1.646c3.206 0 3.8 2.113 3.8 4.861z" transform="translate(0 -2.25)"/>
</svg>
