<svg xmlns="http://www.w3.org/2000/svg" width="25.344" height="17.712" viewBox="0 0 25.344 17.712">
    <path fill="#006a71" d="M24.822 8.159a3.177 3.177 0 0 0-2.206-2.206c-1.975-.529-9.926-.529-9.926-.529s-7.93-.011-9.926.529A3.177 3.177 0 0 0 .559 8.159a33.009 33.009 0 0 0-.551 6.132A33.009 33.009 0 0 0 .559 20.4a3.177 3.177 0 0 0 2.206 2.206c1.973.53 9.926.53 9.926.53s7.929 0 9.926-.53a3.177 3.177 0 0 0 2.205-2.206 33.01 33.01 0 0 0 .528-6.109 33.009 33.009 0 0 0-.528-6.132zm-14.669 9.926v-7.6l6.617 3.805z" transform="translate(-.007 -5.424)"/>
</svg>
