<svg xmlns="http://www.w3.org/2000/svg" width="94.403" height="21.331" viewBox="0 0 94.403 21.331">
    <defs>
        <style>
            .cls-1{fill:#fff}
        </style>
    </defs>
    <g id="Group_37">
        <path id="Path_137" d="M-821.68 368.946v-11.273c0-3.138 2.324-5.027 5.52-5.027 2.993 0 5.114 1.772 5.114 4.62v2.3h-2.934v-1.947a2.015 2.015 0 0 0-2.179-2.179 2.081 2.081 0 0 0-2.237 2.354v10.953a2.114 2.114 0 0 0 2.266 2.382 2.013 2.013 0 0 0 2.15-2.15v-1.946h2.934v2.121c0 2.963-2.121 4.823-5.114 4.823-3.254 0-5.52-1.714-5.52-5.026" class="cls-1" transform="translate(821.68 -352.644)"/>
        <path id="Path_138" d="M-790.9 353.447h9.065v2.731h-5.84v5.869H-783v2.76h-4.678v6.566h5.869v2.789h-9.091z" class="cls-1" transform="translate(803.195 -353.125)"/>
        <path id="Path_139" d="M-764.2 353.447h3.37l4.852 12.842h.058v-12.842h2.876v20.716h-2.964l-5.259-14.149h-.058v14.149h-2.875z" class="cls-1" transform="translate(787.156 -353.125)"/>
        <path id="Path_140" d="M-729.476 356.207h-3.952v-2.76h11.1v2.76h-3.893v17.955h-3.254z" class="cls-1" transform="translate(768.671 -353.125)"/>
        <path id="Path_141" d="M-697.668 363.093c1.423 0 2.208-1.1 2.208-3.457 0-2-.61-3.458-2.266-3.458h-1.743v6.915zm-5.056-9.646h5.259c3.37 0 5.259 2 5.259 5.927 0 2.964-1.017 4.765-2.615 5.433l2.847 9.355h-3.37l-2.412-8.629h-1.714v8.629h-3.254z" class="cls-1" transform="translate(750.228 -353.125)"/>
        <path id="Path_142" d="M-664.816 368.742V357.7a2.084 2.084 0 0 0-2.266-2.238 2.083 2.083 0 0 0-2.208 2.3v10.982a2.135 2.135 0 0 0 2.238 2.354 2.12 2.12 0 0 0 2.237-2.354m-7.786-.058v-10.75c0-3.458 2.382-5.288 5.549-5.288 3.08 0 5.52 1.6 5.52 5.114V368.6c0 3.6-2.44 5.375-5.549 5.375-3.283 0-5.52-1.714-5.52-5.288" class="cls-1" transform="translate(732.136 -352.644)"/>
        <path id="Path_143" d="M-630.765 361.649h-5.777v-1.326L-634.5 358c.686-.775 1.282-1.281 1.282-1.888v-.124a.571.571 0 0 0-.652-.641c-.528 0-.652.4-.652.865v.247h-2.27v-.483c0-1.641 1.3-2.5 3.08-2.5 1.91 0 2.866 1.091 2.866 2.518 0 1.248-1.293 2.372-2.091 3.181l-.494.506v.022h2.664zm-7.935.837h9.845v-9.845h-9.845z" class="cls-1" transform="translate(711.772 -352.641)"/>
        <path id="Path_144" d="M-630.765 390.411h-5.777v-1.326l2.045-2.327c.686-.776 1.282-1.281 1.282-1.888v-.124a.571.571 0 0 0-.652-.641c-.528 0-.652.4-.652.866v.247h-2.27v-.483c0-1.641 1.3-2.5 3.08-2.5 1.91 0 2.866 1.091 2.866 2.518 0 1.248-1.293 2.372-2.091 3.181l-.494.506v.022h2.664zm-7.935.837h9.845V381.4h-9.845z" class="cls-1" transform="translate(711.772 -369.917)"/>
        <path id="Path_145" d="M-601.766 359.131c0 1.889-1.787 2.574-3.226 2.574-1.472 0-3.271-.607-3.271-2.574v-3.1c0-1.922 1.7-2.608 3.226-2.608 1.506 0 3.271.685 3.271 2.664zm-8.171 3.355h9.845v-9.845h-9.845z" class="cls-1" transform="translate(694.496 -352.641)"/>
        <path id="Path_146" d="M-598.726 359.437c-.461 0-.742.27-.742.6v3.181a.666.666 0 0 0 .753.641.669.669 0 0 0 .73-.674v-3.158c0-.326-.292-.585-.741-.585" class="cls-1" transform="translate(688.207 -356.723)"/>
        <path id="Path_147" d="M-598.726 388.2c-.461 0-.742.27-.742.6v3.181a.666.666 0 0 0 .753.641.669.669 0 0 0 .73-.674v-3.158c0-.326-.292-.585-.741-.585" class="cls-1" transform="translate(688.207 -373.999)"/>
        <path id="Path_148" d="M-601.767 387.893c0 1.889-1.787 2.574-3.226 2.574-1.472 0-3.271-.607-3.271-2.574v-3.1c0-1.922 1.7-2.608 3.226-2.608 1.506 0 3.271.685 3.271 2.664zm-8.171 3.355h9.845V381.4h-9.845z" class="cls-1" transform="translate(694.496 -369.917)"/>
    </g>
</svg>
