<svg xmlns="http://www.w3.org/2000/svg" width="71.949" height="21.942" viewBox="0 0 71.949 21.942">
    <defs>
        <style>
            .cls-1{fill:#fff}
        </style>
    </defs>
    <g id="Group_36">
        <path id="Path_129" d="M-476.554 382.946l4.943-4.2q.74-.615 1.25-1.115a7 7 0 0 0 .831-.953 3.368 3.368 0 0 0 .461-.881 2.848 2.848 0 0 0 .145-.921 2.071 2.071 0 0 0-.667-1.648 2.411 2.411 0 0 0-1.651-.584 2.912 2.912 0 0 0-1.734.533 7.974 7.974 0 0 0-1.589 1.62l-1.785-1.394a12.283 12.283 0 0 1 1.046-1.288 5.534 5.534 0 0 1 1.159-.95 5.337 5.337 0 0 1 1.375-.591 6.439 6.439 0 0 1 1.712-.206 5.709 5.709 0 0 1 1.918.308 4.378 4.378 0 0 1 1.5.871 3.961 3.961 0 0 1 .975 1.354 4.309 4.309 0 0 1 .348 1.753v.041a4.884 4.884 0 0 1-.226 1.528 4.805 4.805 0 0 1-.686 1.323 8.556 8.556 0 0 1-1.17 1.281q-.707.646-1.651 1.426l-2.953 2.461h6.83v2.214h-10.379z" class="cls-1" transform="translate(494.396 -362.99)"/>
        <path id="Path_130" d="M-440.153 384.5a7.677 7.677 0 0 1-3.035-.583 7.2 7.2 0 0 1-2.36-1.591 7.268 7.268 0 0 1-1.538-2.348 7.434 7.434 0 0 1-.554-2.861v-.041a7.442 7.442 0 0 1 .554-2.862 7.26 7.26 0 0 1 1.559-2.359 7.511 7.511 0 0 1 2.381-1.61 7.569 7.569 0 0 1 3.035-.595 7.674 7.674 0 0 1 3.035.585 7.209 7.209 0 0 1 2.36 1.589 7.291 7.291 0 0 1 1.539 2.348 7.44 7.44 0 0 1 .554 2.862v.04a7.433 7.433 0 0 1-.554 2.861 7.219 7.219 0 0 1-1.559 2.359 7.488 7.488 0 0 1-2.379 1.61 7.557 7.557 0 0 1-3.036.595m.042-2.317a4.69 4.69 0 0 0 1.95-.4 4.648 4.648 0 0 0 1.521-1.087 5.027 5.027 0 0 0 .991-1.61 5.388 5.388 0 0 0 .357-1.97v-.041a5.467 5.467 0 0 0-.357-1.979 4.9 4.9 0 0 0-1-1.621 4.827 4.827 0 0 0-1.542-1.1 4.658 4.658 0 0 0-1.961-.411 4.7 4.7 0 0 0-1.95.4 4.637 4.637 0 0 0-1.521 1.087 5.028 5.028 0 0 0-.991 1.611 5.416 5.416 0 0 0-.359 1.97v.04a5.5 5.5 0 0 0 .359 1.979 4.9 4.9 0 0 0 1 1.621 4.839 4.839 0 0 0 1.543 1.1 4.677 4.677 0 0 0 1.961.41" class="cls-1" transform="translate(477.028 -362.558)"/>
        <path id="Path_131" d="M-407.577 382.946l4.944-4.2q.736-.615 1.25-1.115a7.115 7.115 0 0 0 .831-.953 3.429 3.429 0 0 0 .461-.881 2.9 2.9 0 0 0 .143-.921 2.068 2.068 0 0 0-.667-1.648 2.411 2.411 0 0 0-1.651-.584 2.907 2.907 0 0 0-1.733.533 7.934 7.934 0 0 0-1.59 1.62l-1.785-1.394a12.6 12.6 0 0 1 1.047-1.288 5.581 5.581 0 0 1 1.159-.95 5.34 5.34 0 0 1 1.375-.591 6.441 6.441 0 0 1 1.712-.206 5.7 5.7 0 0 1 1.918.308 4.376 4.376 0 0 1 1.5.871 3.954 3.954 0 0 1 .974 1.354 4.289 4.289 0 0 1 .349 1.753v.041a4.849 4.849 0 0 1-.226 1.528 4.8 4.8 0 0 1-.688 1.323 8.448 8.448 0 0 1-1.168 1.281q-.71.646-1.651 1.426l-2.954 2.461h6.831v2.214h-10.379z" class="cls-1" transform="translate(452.964 -362.99)"/>
        <path id="Path_132" d="M-371.175 384.5a7.684 7.684 0 0 1-3.036-.583 7.192 7.192 0 0 1-2.359-1.591 7.229 7.229 0 0 1-1.538-2.348 7.426 7.426 0 0 1-.555-2.861v-.041a7.434 7.434 0 0 1 .555-2.862 7.239 7.239 0 0 1 1.559-2.359 7.5 7.5 0 0 1 2.378-1.61 7.584 7.584 0 0 1 3.037-.595 7.687 7.687 0 0 1 3.035.585 7.239 7.239 0 0 1 2.36 1.589 7.315 7.315 0 0 1 1.538 2.348 7.448 7.448 0 0 1 .553 2.862v.04a7.44 7.44 0 0 1-.553 2.861 7.243 7.243 0 0 1-1.559 2.359 7.484 7.484 0 0 1-2.381 1.61 7.543 7.543 0 0 1-3.034.595m.042-2.317a4.683 4.683 0 0 0 1.949-.4 4.638 4.638 0 0 0 1.522-1.087 5.076 5.076 0 0 0 .991-1.61 5.411 5.411 0 0 0 .356-1.97v-.041a5.491 5.491 0 0 0-.356-1.979 4.962 4.962 0 0 0-1-1.621 4.831 4.831 0 0 0-1.542-1.1 4.661 4.661 0 0 0-1.961-.411 4.681 4.681 0 0 0-1.95.4 4.635 4.635 0 0 0-1.523 1.087 5.028 5.028 0 0 0-.99 1.611 5.389 5.389 0 0 0-.357 1.97v.04a5.468 5.468 0 0 0 .357 1.979 4.912 4.912 0 0 0 1 1.621 4.847 4.847 0 0 0 1.543 1.1 4.689 4.689 0 0 0 1.962.41" class="cls-1" transform="translate(435.596 -362.558)"/>
        <path id="Path_133" d="M-475 354.576a2.26 2.26 0 0 1-.258-.011v.866a3.987 3.987 0 0 1 .52.071v.482h-1.815v-.484a3.949 3.949 0 0 1 .519-.071v-2.919a4.232 4.232 0 0 1-.519-.072v-.484h.467c.189 0 .715-.023 1.133-.023.984 0 1.526.46 1.526 1.247a1.422 1.422 0 0 1-1.574 1.4m.012-2.008h-.27v1.343a1.517 1.517 0 0 0 .226.019.717.717 0 0 0 .8-.7c0-.406-.227-.661-.758-.661m3.741 3.482c-1.23 0-1.831-.781-1.831-2.027a1.967 1.967 0 0 1 1.969-2.132c1.074 0 1.833.645 1.833 2.023a1.967 1.967 0 0 1-1.97 2.136m.066-3.459c-.554 0-1.068.442-1.068 1.347 0 .853.335 1.409 1.057 1.409.525 0 1.085-.405 1.085-1.371 0-.9-.38-1.384-1.074-1.384m4.563 3.394l-.985-1.662h-.107v1.109a1.873 1.873 0 0 1 .365.065v.488h-1.659v-.489a4 4 0 0 1 .519-.071v-2.919a4.287 4.287 0 0 1-.519-.072v-.484h.466c.156 0 .715-.023 1.21-.023.89 0 1.463.309 1.463 1.133a1.108 1.108 0 0 1-.949 1.094c.073.094.142.2.2.292l.621.973c.113.016.255.041.394.065v.494zm-.794-3.416a2.217 2.217 0 0 0-.3.014v1.166c.055 0 .156.011.275.011.471 0 .752-.238.752-.615s-.233-.576-.729-.576m4.57.523c-.028-.184-.059-.345-.07-.5h-.621v2.837a4.031 4.031 0 0 1 .52.071v.482h-1.815v-.486a4.008 4.008 0 0 1 .52-.071v-2.837h-.615c-.011.152-.042.313-.071.5h-.574v-1.134h3.3v1.134zm4.491-.579v1.927a1.465 1.465 0 0 1-1.664 1.61c-1.273 0-1.557-.692-1.557-1.46v-2.077a2.212 2.212 0 0 1-.377-.066v-.49h1.581v.49a2.739 2.739 0 0 1-.43.066v2.029c0 .508.163.865.831.865.6 0 .851-.251.851-.938v-1.957a2.534 2.534 0 0 1-.428-.066v-.49h1.563v.49a2.158 2.158 0 0 1-.37.066m4 1.915v1.369a3.887 3.887 0 0 1-1.389.249 1.845 1.845 0 0 1-2.024-1.98 2.07 2.07 0 0 1 2.232-2.167 4.473 4.473 0 0 1 1.123.15v1.08h-.6c-.034-.173-.053-.327-.071-.484a1.945 1.945 0 0 0-.5-.061 1.282 1.282 0 0 0-1.347 1.408 1.2 1.2 0 0 0 1.283 1.356 1.656 1.656 0 0 0 .51-.072v-.841a3.177 3.177 0 0 1-.51-.078v-.484h1.623v.5c-.109.024-.223.042-.336.06m2.8 1.557v-.493a3.885 3.885 0 0 1 .423-.064l-.173-.478h-1.468l-.167.478a3.848 3.848 0 0 1 .425.064v.482h-1.516v-.482a1.431 1.431 0 0 1 .315-.061l1.229-3.485h.949l1.254 3.485a1.43 1.43 0 0 1 .316.061v.482zm-.3-2.618a5.724 5.724 0 0 1-.185-.633h-.006a5.739 5.739 0 0 1-.191.66l-.346.963h1.086zm2.068 2.618v-.493a4.025 4.025 0 0 1 .52-.071v-2.919a4.32 4.32 0 0 1-.52-.072v-.484h1.815v.484a4.267 4.267 0 0 1-.521.072v2.834h.772c.012-.144.042-.316.072-.494h.571v1.133z" class="cls-1" transform="translate(494.396 -351.89)"/>
        <path id="Path_134" d="M-515.469 352.318c-3.553 1.4-5.762 5.11-5.762 10.818v8.664s.726-5.569 5.762-7.173z" class="cls-1" transform="translate(521.231 -352.147)"/>
        <path id="Path_135" d="M-511.491 365.654c-2.063.412-5.087 2.067-5.977 4.4 4.431-5.38 13.475-.18 13.876-10.3.127-3.2.14-7.147.14-7.147a29.576 29.576 0 0 0-8.038 1.523z" class="cls-1" transform="translate(518.971 -352.318)"/>
        <path id="Path_136" d="M-511.808 392.6s-4.808.389-5.217 3.135c-.323 2.146 5.217 2.2 5.217 2.2z" class="cls-1" transform="translate(518.713 -376.343)"/>
    </g>
</svg>
