<svg xmlns="http://www.w3.org/2000/svg" width="89.074" height="23.192" viewBox="0 0 89.074 23.192">
    <defs>
        <style>
            .cls-2,.cls-3,.cls-4{fill:#fff}.cls-3{fill-rule:evenodd}.cls-4{opacity:.8}
        </style>
    </defs>
    <g id="Group_35" transform="translate(.5 .012)">
        <path id="Path_74" fill="none" stroke="#fff" stroke-miterlimit="10" d="M-269.712 351.978h33.289v22.192h-33.289v-22.192z" transform="translate(269.712 -351.49)"/>
        <path id="Path_75" d="M-237.071 359.6l.269.839h.881l-.714.514.267.829-.7-.513-.7.513.267-.829-.712-.514h.879l.269-.841zm-4.344 1.2l.267-.829-.713-.513h.879l.269-.84.269.839h.879l-.714.513.268.829-.7-.513-.7.513zm-3.635.976l.267-.829-.713-.512h.879l.269-.841.269.84h.879l-.713.512.267.829-.7-.512-.7.512zm-1.958.484l.269.84h.879l-.713.513.267.829-.7-.512-.7.512.268-.829-.713-.513h.879l.269-.841zm-.976 5.3l-.7.512.267-.829-.713-.512h.879l.269-.842.269.84h.879l-.713.512.267.829-.7-.512zm1.245 2.812h.879l-.713.513.267.829-.7-.514-.7.514.268-.829-.713-.513h.879l.269-.841.269.84zm2.665 2.665h.879l-.713.513.267.829-.7-.512-.7.512.267-.829-.713-.513h.88l.269-.84.269.839zm3.63.966h.879l-.714.513.268.829-.7-.512-.7.512.267-.829-.713-.513h.879l.269-.841.269.84zm3.63-.966h.879l-.714.513.268.829-.7-.512-.7.512.267-.829-.712-.513h.879l.27-.84.269.839zm2.666-2.665h.879l-.713.513.268.829-.7-.514-.7.514.268-.829-.714-.513h.879l.27-.841.27.84zm1.844-3.651l-.713.512.267.829-.7-.514-.7.514.267-.829-.713-.512h.879l.269-.841.27.84zm-2.816-2.29l.268-.829-.714-.512h.879l.27-.841.27.84h.879l-.713.512.268.829-.7-.513-.7.513z" class="cls-2" transform="translate(257.351 -355.483)"/>
        <g id="Group_33" transform="translate(36.367)">
            <path id="Path_76" d="M-178.645 352.955h.674v1.8a3.791 3.791 0 0 0 .025.556.54.54 0 0 0 .2.328.7.7 0 0 0 .439.124.665.665 0 0 0 .427-.117.461.461 0 0 0 .173-.287 3.761 3.761 0 0 0 .03-.565v-1.841h.677v1.747a4.534 4.534 0 0 1-.054.847.946.946 0 0 1-.2.418 1.012 1.012 0 0 1-.391.271 1.687 1.687 0 0 1-.638.1 1.827 1.827 0 0 1-.72-.11 1.031 1.031 0 0 1-.388-.286.92.92 0 0 1-.188-.369 4.079 4.079 0 0 1-.066-.845v-1.776z" class="cls-2" transform="translate(178.645 -352.077)"/>
            <path id="Path_77" d="M-170.236 356.282v-3.327h.652l1.369 2.229v-2.229h.623v3.327h-.673l-1.348-2.187v2.187z" class="cls-2" transform="translate(173.594 -352.077)"/>
            <path id="Path_78" d="M-161.885 356.282v-3.327h.674v3.327z" class="cls-2" transform="translate(168.578 -352.077)"/>
            <path id="Path_79" d="M-156.114 354.961h-.725l-.288-.757h-1.335l-.276.757h-.712l1.292-3.327h.712l1.333 3.327zm-1.231-1.319l-.462-1.231-.449 1.231zm-.915-2.3h-.293v-.081a.529.529 0 0 1 .116-.367.384.384 0 0 1 .3-.128.614.614 0 0 1 .147.017 1.929 1.929 0 0 1 .249.1.753.753 0 0 0 .283.081.17.17 0 0 0 .121-.046.249.249 0 0 0 .063-.154h.293a.7.7 0 0 1-.114.443.361.361 0 0 1-.289.133.686.686 0 0 1-.152-.016c-.035-.009-.122-.042-.26-.1a.96.96 0 0 0-.3-.082.145.145 0 0 0-.113.045.236.236 0 0 0-.043.155z" class="cls-3" transform="translate(167.115 -350.756)"/>
            <path id="Path_80" d="M-150.541 354.548a2.123 2.123 0 0 1 .152-.855 1.576 1.576 0 0 1 .31-.457 1.3 1.3 0 0 1 .431-.3 1.827 1.827 0 0 1 .718-.132 1.562 1.562 0 0 1 1.178.457 1.754 1.754 0 0 1 .442 1.271 1.747 1.747 0 0 1-.438 1.263 1.549 1.549 0 0 1-1.172.456 1.566 1.566 0 0 1-1.181-.454 1.724 1.724 0 0 1-.438-1.25zm.692-.023a1.248 1.248 0 0 0 .262.858.853.853 0 0 0 .664.292.845.845 0 0 0 .661-.29 1.271 1.271 0 0 0 .258-.869 1.253 1.253 0 0 0-.251-.855.85.85 0 0 0-.668-.282.856.856 0 0 0-.671.285 1.26 1.26 0 0 0-.255.86z" class="cls-3" transform="translate(161.764 -351.986)"/>
            <path id="Path_81" d="M-137.921 356.282v-3.327h2.463v.562h-1.789v.739h1.664v.562h-1.664v.9h1.854v.562z" class="cls-2" transform="translate(154.184 -352.077)"/>
            <path id="Path_82" d="M-130.173 352.955h.674v1.8a3.789 3.789 0 0 0 .025.556.54.54 0 0 0 .2.328.7.7 0 0 0 .439.124.665.665 0 0 0 .427-.117.463.463 0 0 0 .173-.287 3.759 3.759 0 0 0 .03-.565v-1.841h.674v1.747a4.534 4.534 0 0 1-.054.847.942.942 0 0 1-.2.418 1.008 1.008 0 0 1-.39.271 1.687 1.687 0 0 1-.638.1 1.827 1.827 0 0 1-.72-.11 1.031 1.031 0 0 1-.388-.286.921.921 0 0 1-.188-.369 4.081 4.081 0 0 1-.065-.845v-1.776z" class="cls-2" transform="translate(149.53 -352.077)"/>
            <path id="Path_83" d="M-121.764 356.282v-3.327h1.415a2.432 2.432 0 0 1 .776.089.765.765 0 0 1 .387.319.958.958 0 0 1 .145.524.889.889 0 0 1-.219.618 1.052 1.052 0 0 1-.656.307 1.552 1.552 0 0 1 .358.279 3.766 3.766 0 0 1 .381.54l.406.649h-.8l-.482-.726a4.7 4.7 0 0 0-.355-.488.518.518 0 0 0-.2-.138 1.126 1.126 0 0 0-.339-.037h-.137v1.389zm.674-1.919h.5a2.576 2.576 0 0 0 .6-.041.363.363 0 0 0 .188-.141.434.434 0 0 0 .068-.25.4.4 0 0 0-.09-.272.413.413 0 0 0-.253-.131q-.082-.011-.49-.011h-.524v.845z" class="cls-3" transform="translate(144.479 -352.077)"/>
            <path id="Path_84" d="M-113.7 354.548a2.123 2.123 0 0 1 .152-.855 1.568 1.568 0 0 1 .31-.457 1.293 1.293 0 0 1 .43-.3 1.826 1.826 0 0 1 .718-.132 1.562 1.562 0 0 1 1.177.457 1.752 1.752 0 0 1 .442 1.271 1.747 1.747 0 0 1-.438 1.263 1.55 1.55 0 0 1-1.172.456 1.567 1.567 0 0 1-1.181-.454 1.725 1.725 0 0 1-.438-1.25zm.692-.023a1.248 1.248 0 0 0 .262.858.853.853 0 0 0 .664.292.845.845 0 0 0 .661-.29 1.271 1.271 0 0 0 .258-.869 1.251 1.251 0 0 0-.252-.855.849.849 0 0 0-.667-.282.856.856 0 0 0-.671.285 1.258 1.258 0 0 0-.255.86z" class="cls-3" transform="translate(139.638 -351.986)"/>
            <path id="Path_85" d="M-104.311 356.282v-3.327h1.077a3.891 3.891 0 0 1 .8.05.873.873 0 0 1 .478.326 1.036 1.036 0 0 1 .192.648 1.083 1.083 0 0 1-.111.515.911.911 0 0 1-.282.328.983.983 0 0 1-.348.158 3.838 3.838 0 0 1-.7.048h-.437v1.254zm.674-2.764v.948h.366a1.726 1.726 0 0 0 .529-.052.441.441 0 0 0 .209-.164.452.452 0 0 0 .076-.26.433.433 0 0 0-.106-.3.461.461 0 0 0-.269-.148 3.192 3.192 0 0 0-.482-.023z" class="cls-3" transform="translate(133.996 -352.077)"/>
            <path id="Path_86" d="M-96.563 356.282v-3.327h2.463v.562h-1.789v.739h1.663v.562h-1.663v.9h1.854v.562z" class="cls-2" transform="translate(129.342 -352.077)"/>
            <path id="Path_87" d="M-88.873 356.282v-3.327h.674v3.327z" class="cls-2" transform="translate(124.723 -352.077)"/>
            <path id="Path_88" d="M-83.1 356.282h-.725l-.288-.757h-1.335l-.276.757h-.712l1.292-3.327h.712l1.333 3.327zm-1.231-1.319l-.462-1.231-.449 1.231z" class="cls-3" transform="translate(123.26 -352.077)"/>
        </g>
        <g id="Group_34" transform="translate(36.552 14.355)">
            <path id="Path_89" d="M-178.152 389.6v-2.9h1.958v.342h-1.573v.9h1.362v.342h-1.362v1.316z" class="cls-4" transform="translate(178.164 -386.702)"/>
            <path id="Path_90" d="M-170.75 390.806v-.306a.769.769 0 0 1-.667.356.85.85 0 0 1-.347-.071.575.575 0 0 1-.24-.179.673.673 0 0 1-.11-.264 1.819 1.819 0 0 1-.022-.332v-1.3h.356v1.166a2.05 2.05 0 0 0 .022.376.373.373 0 0 0 .142.22.442.442 0 0 0 .269.08.588.588 0 0 0 .3-.082.459.459 0 0 0 .2-.224 1.126 1.126 0 0 0 .058-.411V388.7h.356v2.1z" class="cls-4" transform="translate(174.549 -387.905)"/>
            <path id="Path_91" d="M-166.47 390.734v-2.1h.321v.3a.755.755 0 0 1 .669-.346.877.877 0 0 1 .349.068.553.553 0 0 1 .239.179.692.692 0 0 1 .111.264 2.035 2.035 0 0 1 .02.346v1.292h-.356v-1.278a.952.952 0 0 0-.042-.326.34.34 0 0 0-.147-.172.47.47 0 0 0-.248-.064.578.578 0 0 0-.393.145.714.714 0 0 0-.165.548v1.148z" class="cls-4" transform="translate(171.147 -387.833)"/>
            <path id="Path_92" d="M-159.656 389.6v-.265a.654.654 0 0 1-.588.313.825.825 0 0 1-.462-.139.909.909 0 0 1-.327-.387 1.338 1.338 0 0 1-.116-.571 1.494 1.494 0 0 1 .105-.571.828.828 0 0 1 .315-.393.842.842 0 0 1 .469-.137.7.7 0 0 1 .338.08.719.719 0 0 1 .242.209V386.7h.354v2.9zm-1.126-1.049a.914.914 0 0 0 .17.6.513.513 0 0 0 .4.2.5.5 0 0 0 .4-.191.879.879 0 0 0 .163-.583.99.99 0 0 0-.166-.633.512.512 0 0 0-.41-.2.493.493 0 0 0-.4.194.957.957 0 0 0-.157.616z" class="cls-4" transform="translate(167.95 -386.702)"/>
            <path id="Path_93" d="M-155.513 389.683a1.083 1.083 0 0 1 .325-.865.978.978 0 0 1 .661-.234.944.944 0 0 1 .709.284 1.081 1.081 0 0 1 .275.785 1.391 1.391 0 0 1-.121.638.862.862 0 0 1-.355.361 1.03 1.03 0 0 1-.508.129.944.944 0 0 1-.713-.283 1.129 1.129 0 0 1-.273-.815zm.366 0a.9.9 0 0 0 .176.6.564.564 0 0 0 .443.2.563.563 0 0 0 .442-.2.917.917 0 0 0 .176-.615.869.869 0 0 0-.177-.591.564.564 0 0 0-.44-.2.565.565 0 0 0-.443.2.891.891 0 0 0-.177.606z" class="cls-4" transform="translate(164.565 -387.833)"/>
            <path id="Path_94" d="M-149.893 390.107l.353-.056a.491.491 0 0 0 .165.325.578.578 0 0 0 .379.113.556.556 0 0 0 .364-.1.3.3 0 0 0 .119-.234.217.217 0 0 0-.105-.19 1.547 1.547 0 0 0-.364-.121 3.287 3.287 0 0 1-.543-.171.523.523 0 0 1-.23-.2.529.529 0 0 1-.078-.282.542.542 0 0 1 .064-.26.575.575 0 0 1 .175-.2.725.725 0 0 1 .226-.1 1.064 1.064 0 0 1 .308-.043 1.218 1.218 0 0 1 .435.071.59.59 0 0 1 .276.193.752.752 0 0 1 .123.325l-.348.048a.381.381 0 0 0-.138-.254.5.5 0 0 0-.321-.091.58.58 0 0 0-.35.081.236.236 0 0 0-.105.19.2.2 0 0 0 .044.125.312.312 0 0 0 .137.095c.036.014.141.044.315.091a4.441 4.441 0 0 1 .528.165.535.535 0 0 1 .234.187.522.522 0 0 1 .085.3.6.6 0 0 1-.1.335.668.668 0 0 1-.3.243 1.088 1.088 0 0 1-.443.086.987.987 0 0 1-.624-.17.791.791 0 0 1-.281-.501z" class="cls-4" transform="translate(161.19 -387.833)"/>
            <path id="Path_95" d="M-141.507 389.6v-2.9h2.1v.342h-1.714v.889h1.605v.341h-1.605v.988h1.781v.342z" class="cls-4" transform="translate(156.153 -386.702)"/>
            <path id="Path_96" d="M-133.506 390.806v-.306a.769.769 0 0 1-.667.356.851.851 0 0 1-.347-.071.571.571 0 0 1-.239-.179.662.662 0 0 1-.11-.264 1.778 1.778 0 0 1-.022-.332v-1.3h.356v1.166a2.048 2.048 0 0 0 .022.376.372.372 0 0 0 .142.22.442.442 0 0 0 .269.08.588.588 0 0 0 .3-.082.459.459 0 0 0 .2-.224 1.126 1.126 0 0 0 .058-.411V388.7h.356v2.1z" class="cls-4" transform="translate(152.179 -387.905)"/>
            <path id="Path_97" d="M-129.236 390.734v-2.1h.321v.319a.867.867 0 0 1 .226-.3.4.4 0 0 1 .229-.071.7.7 0 0 1 .366.115l-.123.331a.509.509 0 0 0-.261-.077.337.337 0 0 0-.21.07.378.378 0 0 0-.133.195 1.376 1.376 0 0 0-.06.416v1.1z" class="cls-4" transform="translate(148.782 -387.833)"/>
            <path id="Path_98" d="M-126.178 389.683a1.083 1.083 0 0 1 .324-.865.979.979 0 0 1 .661-.234.943.943 0 0 1 .708.284 1.081 1.081 0 0 1 .275.785 1.391 1.391 0 0 1-.122.638.861.861 0 0 1-.354.361 1.03 1.03 0 0 1-.508.129.944.944 0 0 1-.714-.283 1.131 1.131 0 0 1-.27-.815zm.366 0a.893.893 0 0 0 .176.6.564.564 0 0 0 .443.2.562.562 0 0 0 .441-.2.916.916 0 0 0 .176-.615.869.869 0 0 0-.177-.591.563.563 0 0 0-.44-.2.565.565 0 0 0-.443.2.889.889 0 0 0-.176.606z" class="cls-4" transform="translate(146.945 -387.833)"/>
            <path id="Path_99" d="M-120.2 391.54v-2.907h.324v.273a.8.8 0 0 1 .26-.241.716.716 0 0 1 .35-.08.831.831 0 0 1 .475.139.847.847 0 0 1 .311.391 1.428 1.428 0 0 1 .105.553 1.406 1.406 0 0 1-.116.581.868.868 0 0 1-.337.4.862.862 0 0 1-.464.138.672.672 0 0 1-.319-.075.725.725 0 0 1-.232-.19v1.023zm.322-1.845a.912.912 0 0 0 .165.6.5.5 0 0 0 .4.194.514.514 0 0 0 .407-.2.951.951 0 0 0 .169-.622.929.929 0 0 0-.165-.6.5.5 0 0 0-.395-.2.512.512 0 0 0-.4.212.952.952 0 0 0-.182.621z" class="cls-4" transform="translate(143.355 -387.833)"/>
            <path id="Path_100" d="M-113.3 390.057l.368.046a.9.9 0 0 1-.323.5.97.97 0 0 1-.6.178.962.962 0 0 1-.732-.284 1.11 1.11 0 0 1-.27-.8 1.162 1.162 0 0 1 .273-.823.925.925 0 0 1 .708-.293.9.9 0 0 1 .689.287 1.142 1.142 0 0 1 .267.808v.095h-1.567a.808.808 0 0 0 .2.531.584.584 0 0 0 .44.184.544.544 0 0 0 .334-.1.683.683 0 0 0 .213-.329zm-1.17-.576h1.174a.709.709 0 0 0-.135-.4.545.545 0 0 0-.441-.206.566.566 0 0 0-.413.165.651.651 0 0 0-.181.442z" class="cls-4" transform="translate(140.143 -387.833)"/>
            <path id="Path_101" d="M-107.546 390.806v-.306a.77.77 0 0 1-.667.356.848.848 0 0 1-.347-.071.572.572 0 0 1-.24-.179.667.667 0 0 1-.11-.264 1.778 1.778 0 0 1-.022-.332v-1.3h.356v1.166a2.086 2.086 0 0 0 .022.376.371.371 0 0 0 .143.22.44.44 0 0 0 .269.08.588.588 0 0 0 .3-.082.455.455 0 0 0 .2-.224 1.117 1.117 0 0 0 .058-.411V388.7h.357v2.1z" class="cls-4" transform="translate(136.586 -387.905)"/>
            <path id="Path_102" d="M-103.624 390.107l.352-.056a.493.493 0 0 0 .165.325.577.577 0 0 0 .379.113.556.556 0 0 0 .364-.1.3.3 0 0 0 .119-.234.217.217 0 0 0-.105-.19 1.547 1.547 0 0 0-.364-.121 3.308 3.308 0 0 1-.544-.171.524.524 0 0 1-.229-.2.529.529 0 0 1-.078-.282.543.543 0 0 1 .064-.26.571.571 0 0 1 .175-.2.725.725 0 0 1 .226-.1 1.064 1.064 0 0 1 .308-.043 1.214 1.214 0 0 1 .434.071.589.589 0 0 1 .276.193.752.752 0 0 1 .123.325l-.348.048a.381.381 0 0 0-.138-.254.5.5 0 0 0-.321-.091.58.58 0 0 0-.35.081.236.236 0 0 0-.105.19.2.2 0 0 0 .044.125.312.312 0 0 0 .137.095c.036.014.141.044.315.091a4.441 4.441 0 0 1 .528.165.535.535 0 0 1 .234.187.522.522 0 0 1 .085.3.6.6 0 0 1-.1.335.668.668 0 0 1-.3.243 1.088 1.088 0 0 1-.443.086.987.987 0 0 1-.624-.17.791.791 0 0 1-.279-.501z" class="cls-4" transform="translate(133.398 -387.833)"/>
            <path id="Path_103" d="M-178.181 403.407v-2.9h2.1v.343h-1.719v.889h1.6v.34h-1.6v.988h1.781v.343z" class="cls-4" transform="translate(178.181 -394.993)"/>
            <path id="Path_104" d="M-171.9 403.911l.352-.056a.494.494 0 0 0 .165.325.577.577 0 0 0 .379.113.556.556 0 0 0 .364-.1.3.3 0 0 0 .119-.234.216.216 0 0 0-.1-.19 1.559 1.559 0 0 0-.364-.121 3.294 3.294 0 0 1-.544-.171.526.526 0 0 1-.23-.2.53.53 0 0 1-.078-.282.54.54 0 0 1 .064-.26.58.58 0 0 1 .175-.2.738.738 0 0 1 .227-.1 1.076 1.076 0 0 1 .307-.042 1.216 1.216 0 0 1 .434.071.593.593 0 0 1 .276.193.756.756 0 0 1 .123.326l-.348.047a.382.382 0 0 0-.138-.253.5.5 0 0 0-.321-.091.583.583 0 0 0-.35.081.236.236 0 0 0-.105.19.2.2 0 0 0 .044.125.31.31 0 0 0 .137.1q.053.02.315.091a4.465 4.465 0 0 1 .528.165.537.537 0 0 1 .234.187.523.523 0 0 1 .085.305.6.6 0 0 1-.1.335.673.673 0 0 1-.3.243 1.089 1.089 0 0 1-.443.086.989.989 0 0 1-.625-.17.793.793 0 0 1-.282-.513z" class="cls-4" transform="translate(174.409 -396.124)"/>
            <path id="Path_105" d="M-165.987 403.186l.052.315a1.318 1.318 0 0 1-.269.032.61.61 0 0 1-.3-.061.346.346 0 0 1-.151-.161 1.273 1.273 0 0 1-.044-.421v-1.21h-.261v-.28h.261v-.521l.354-.214v.734h.358v.277h-.358v1.229a.627.627 0 0 0 .019.2.151.151 0 0 0 .062.069.237.237 0 0 0 .122.026 1.169 1.169 0 0 0 .155-.014z" class="cls-4" transform="translate(171.442 -395.091)"/>
            <path id="Path_106" d="M-163.66 404.538v-2.1h.321v.318a.863.863 0 0 1 .226-.295.394.394 0 0 1 .228-.071.7.7 0 0 1 .366.115l-.123.331a.51.51 0 0 0-.261-.077.341.341 0 0 0-.21.07.381.381 0 0 0-.133.2 1.388 1.388 0 0 0-.059.415v1.1z" class="cls-4" transform="translate(169.459 -396.124)"/>
            <path id="Path_107" d="M-158.9 404.61v-.31a.77.77 0 0 1-.667.356.849.849 0 0 1-.347-.072.575.575 0 0 1-.24-.179.675.675 0 0 1-.11-.264 1.823 1.823 0 0 1-.022-.332v-1.3h.356v1.166a2.091 2.091 0 0 0 .022.376.371.371 0 0 0 .143.221.442.442 0 0 0 .269.08.586.586 0 0 0 .3-.082.455.455 0 0 0 .2-.224 1.116 1.116 0 0 0 .059-.411v-1.126h.356v2.1z" class="cls-4" transform="translate(167.435 -396.196)"/>
            <path id="Path_108" d="M-154.142 403.186l.052.315a1.318 1.318 0 0 1-.269.032.61.61 0 0 1-.3-.061.346.346 0 0 1-.151-.161 1.272 1.272 0 0 1-.044-.421v-1.21h-.261v-.28h.261v-.521l.354-.214v.734h.358v.277h-.358v1.229a.627.627 0 0 0 .019.2.151.151 0 0 0 .062.069.236.236 0 0 0 .122.026 1.169 1.169 0 0 0 .155-.014z" class="cls-4" transform="translate(164.327 -395.091)"/>
            <path id="Path_109" d="M-150.44 404.61v-.31a.77.77 0 0 1-.667.356.849.849 0 0 1-.347-.072.572.572 0 0 1-.24-.179.675.675 0 0 1-.11-.264 1.823 1.823 0 0 1-.022-.332v-1.3h.356v1.166a2.089 2.089 0 0 0 .022.376.371.371 0 0 0 .143.221.441.441 0 0 0 .269.08.586.586 0 0 0 .3-.082.455.455 0 0 0 .2-.224 1.116 1.116 0 0 0 .059-.411v-1.126h.356v2.1z" class="cls-4" transform="translate(162.35 -396.196)"/>
            <path id="Path_110" d="M-146.171 404.538v-2.1h.321v.318a.868.868 0 0 1 .227-.295.394.394 0 0 1 .228-.071.7.7 0 0 1 .366.115l-.123.331a.511.511 0 0 0-.262-.077.339.339 0 0 0-.21.07.382.382 0 0 0-.133.2 1.389 1.389 0 0 0-.059.415v1.1z" class="cls-4" transform="translate(158.954 -396.124)"/>
            <path id="Path_111" d="M-141.591 404.279a1.334 1.334 0 0 1-.381.237 1.1 1.1 0 0 1-.393.069.763.763 0 0 1-.532-.169.557.557 0 0 1-.186-.432.576.576 0 0 1 .07-.282.582.582 0 0 1 .184-.2.865.865 0 0 1 .256-.117 2.511 2.511 0 0 1 .317-.054 3.249 3.249 0 0 0 .635-.123v-.093a.4.4 0 0 0-.1-.307.6.6 0 0 0-.406-.121.63.63 0 0 0-.371.088.536.536 0 0 0-.177.311l-.349-.047a.864.864 0 0 1 .157-.361.681.681 0 0 1 .315-.212 1.394 1.394 0 0 1 .477-.074 1.272 1.272 0 0 1 .438.063.579.579 0 0 1 .247.159.562.562 0 0 1 .111.242 2.052 2.052 0 0 1 .018.329v.475a5.042 5.042 0 0 0 .023.629.787.787 0 0 0 .09.252h-.372a.748.748 0 0 1-.071-.262zm-.03-.8a2.583 2.583 0 0 1-.582.135 1.352 1.352 0 0 0-.311.071.309.309 0 0 0-.141.116.305.305 0 0 0-.049.169.3.3 0 0 0 .108.238.464.464 0 0 0 .316.1.736.736 0 0 0 .366-.09.557.557 0 0 0 .236-.247.865.865 0 0 0 .057-.356z" class="cls-4" transform="translate(157.099 -396.124)"/>
            <path id="Path_112" d="M-137.131 400.915v-.41h.356v.41zm0 2.492v-2.1h.356v2.1z" class="cls-4" transform="translate(153.524 -394.993)"/>
            <path id="Path_113" d="M-135.238 403.911l.352-.056a.494.494 0 0 0 .165.325.577.577 0 0 0 .379.113.556.556 0 0 0 .364-.1.3.3 0 0 0 .119-.234.216.216 0 0 0-.1-.19 1.552 1.552 0 0 0-.364-.121 3.308 3.308 0 0 1-.544-.171.528.528 0 0 1-.23-.2.53.53 0 0 1-.078-.282.544.544 0 0 1 .064-.26.581.581 0 0 1 .175-.2.738.738 0 0 1 .227-.1 1.078 1.078 0 0 1 .308-.042 1.214 1.214 0 0 1 .434.071.592.592 0 0 1 .276.193.756.756 0 0 1 .123.326l-.348.047a.382.382 0 0 0-.138-.253.5.5 0 0 0-.321-.091.583.583 0 0 0-.35.081.237.237 0 0 0-.105.19.2.2 0 0 0 .044.125.312.312 0 0 0 .137.1q.053.02.315.091a4.466 4.466 0 0 1 .528.165.537.537 0 0 1 .234.187.523.523 0 0 1 .085.305.6.6 0 0 1-.1.335.671.671 0 0 1-.3.243 1.089 1.089 0 0 1-.443.086.989.989 0 0 1-.625-.17.793.793 0 0 1-.283-.513z" class="cls-4" transform="translate(152.387 -396.124)"/>
            <path id="Path_114" d="M-125.726 403.861l.368.046a.9.9 0 0 1-.323.5.971.971 0 0 1-.6.178.96.96 0 0 1-.731-.284 1.109 1.109 0 0 1-.27-.8 1.161 1.161 0 0 1 .273-.823.925.925 0 0 1 .709-.293.9.9 0 0 1 .688.287 1.14 1.14 0 0 1 .267.807v.1h-1.567a.807.807 0 0 0 .2.53.582.582 0 0 0 .439.184.548.548 0 0 0 .335-.1.686.686 0 0 0 .212-.332zm-1.17-.576h1.174a.712.712 0 0 0-.135-.4.546.546 0 0 0-.441-.206.566.566 0 0 0-.413.164.652.652 0 0 0-.189.443z" class="cls-4" transform="translate(147.609 -396.124)"/>
            <path id="Path_115" d="M-117.352 403.407v-.265a.654.654 0 0 1-.588.313.826.826 0 0 1-.462-.139.911.911 0 0 1-.327-.387 1.339 1.339 0 0 1-.116-.571 1.5 1.5 0 0 1 .105-.571.827.827 0 0 1 .315-.393.842.842 0 0 1 .469-.137.7.7 0 0 1 .338.08.714.714 0 0 1 .242.209v-1.041h.354v2.9zm-1.126-1.049a.912.912 0 0 0 .171.6.512.512 0 0 0 .4.2.5.5 0 0 0 .4-.191.88.88 0 0 0 .163-.583.989.989 0 0 0-.166-.633.512.512 0 0 0-.41-.2.493.493 0 0 0-.4.194.957.957 0 0 0-.158.613z" class="cls-4" transform="translate(142.54 -394.993)"/>
            <path id="Path_116" d="M-111.617 403.861l.368.046a.9.9 0 0 1-.323.5.97.97 0 0 1-.6.178.96.96 0 0 1-.731-.284 1.109 1.109 0 0 1-.27-.8 1.161 1.161 0 0 1 .273-.823.924.924 0 0 1 .708-.293.9.9 0 0 1 .689.287 1.14 1.14 0 0 1 .267.807v.1h-1.567a.805.805 0 0 0 .2.53.582.582 0 0 0 .439.184.546.546 0 0 0 .334-.1.683.683 0 0 0 .213-.332zm-1.17-.576h1.174a.709.709 0 0 0-.135-.4.545.545 0 0 0-.441-.206.566.566 0 0 0-.413.164.653.653 0 0 0-.184.443z" class="cls-4" transform="translate(139.134 -396.124)"/>
            <path id="Path_117" d="M-104.134 403.407v-2.9h.384v2.9z" class="cls-4" transform="translate(133.704 -394.993)"/>
            <path id="Path_118" d="M-101.592 404.538v-2.1h.321v.3a.756.756 0 0 1 .669-.346.878.878 0 0 1 .349.068.548.548 0 0 1 .238.179.69.69 0 0 1 .111.263 2.055 2.055 0 0 1 .02.347v1.292h-.356v-1.281a.963.963 0 0 0-.042-.325.34.34 0 0 0-.147-.172.467.467 0 0 0-.248-.064.576.576 0 0 0-.393.145.711.711 0 0 0-.165.548v1.148z" class="cls-4" transform="translate(132.177 -396.124)"/>
            <path id="Path_119" d="M-95.687 404.61l-.8-2.1h.376l.451 1.259q.074.2.135.423c.032-.111.076-.244.133-.4l.467-1.282h.366l-.8 2.1z" class="cls-4" transform="translate(129.111 -396.196)"/>
            <path id="Path_120" d="M-89.612 403.861l.368.046a.9.9 0 0 1-.323.5.971.971 0 0 1-.6.178.96.96 0 0 1-.731-.284 1.109 1.109 0 0 1-.27-.8 1.161 1.161 0 0 1 .273-.823.923.923 0 0 1 .708-.293.9.9 0 0 1 .688.287 1.14 1.14 0 0 1 .268.807v.1H-90.8a.807.807 0 0 0 .2.53.582.582 0 0 0 .439.184.548.548 0 0 0 .335-.1.686.686 0 0 0 .214-.332zm-1.17-.576h1.174a.712.712 0 0 0-.135-.4.546.546 0 0 0-.441-.206.567.567 0 0 0-.413.164.652.652 0 0 0-.184.443z" class="cls-4" transform="translate(125.917 -396.124)"/>
            <path id="Path_121" d="M-85.584 403.911l.352-.056a.494.494 0 0 0 .165.325.577.577 0 0 0 .379.113.556.556 0 0 0 .364-.1.3.3 0 0 0 .119-.234.216.216 0 0 0-.1-.19 1.559 1.559 0 0 0-.364-.121 3.308 3.308 0 0 1-.544-.171.526.526 0 0 1-.23-.2.53.53 0 0 1-.078-.282.54.54 0 0 1 .064-.26.581.581 0 0 1 .175-.2.738.738 0 0 1 .227-.1 1.076 1.076 0 0 1 .307-.042 1.216 1.216 0 0 1 .434.071.593.593 0 0 1 .276.193.756.756 0 0 1 .123.326l-.348.047a.382.382 0 0 0-.138-.253.5.5 0 0 0-.321-.091.583.583 0 0 0-.35.081.236.236 0 0 0-.105.19.2.2 0 0 0 .044.125.312.312 0 0 0 .137.1q.053.02.315.091a4.467 4.467 0 0 1 .528.165.537.537 0 0 1 .234.187.523.523 0 0 1 .085.305.6.6 0 0 1-.1.335.673.673 0 0 1-.3.243 1.089 1.089 0 0 1-.443.086.989.989 0 0 1-.625-.17.793.793 0 0 1-.282-.513z" class="cls-4" transform="translate(122.562 -396.124)"/>
            <path id="Path_122" d="M-79.669 403.186l.052.315a1.315 1.315 0 0 1-.269.032.61.61 0 0 1-.3-.061.348.348 0 0 1-.151-.161 1.283 1.283 0 0 1-.044-.421v-1.21h-.261v-.28h.261v-.521l.354-.214v.734h.358v.277h-.358v1.229a.627.627 0 0 0 .019.2.151.151 0 0 0 .061.069.237.237 0 0 0 .122.026 1.169 1.169 0 0 0 .156-.014z" class="cls-4" transform="translate(119.594 -395.091)"/>
            <path id="Path_123" d="M-77.327 400.915v-.41h.356v.41zm0 2.492v-2.1h.356v2.1z" class="cls-4" transform="translate(117.603 -394.993)"/>
            <path id="Path_124" d="M-75.077 404.538v-2.1h.319v.295a.745.745 0 0 1 .263-.248.738.738 0 0 1 .374-.094.694.694 0 0 1 .383.1.518.518 0 0 1 .211.271.755.755 0 0 1 .649-.368.64.64 0 0 1 .481.173.74.74 0 0 1 .168.534v1.443h-.354v-1.324a.97.97 0 0 0-.035-.308.3.3 0 0 0-.125-.152.4.4 0 0 0-.214-.057.5.5 0 0 0-.368.147.648.648 0 0 0-.147.472v1.221h-.356v-1.366a.6.6 0 0 0-.087-.356.331.331 0 0 0-.285-.119.518.518 0 0 0-.278.079.451.451 0 0 0-.185.232 1.3 1.3 0 0 0-.057.439v1.091z" class="cls-4" transform="translate(116.251 -396.124)"/>
            <path id="Path_125" d="M-65.362 403.861l.368.046a.9.9 0 0 1-.323.5.97.97 0 0 1-.6.178.96.96 0 0 1-.731-.284 1.109 1.109 0 0 1-.27-.8 1.161 1.161 0 0 1 .273-.823.924.924 0 0 1 .708-.293.9.9 0 0 1 .689.287 1.14 1.14 0 0 1 .267.807v.1h-1.567a.805.805 0 0 0 .2.53.582.582 0 0 0 .439.184.546.546 0 0 0 .334-.1.683.683 0 0 0 .213-.332zm-1.17-.576h1.173a.709.709 0 0 0-.135-.4.545.545 0 0 0-.441-.206.566.566 0 0 0-.413.164.651.651 0 0 0-.184.443z" class="cls-4" transform="translate(111.352 -396.124)"/>
            <path id="Path_126" d="M-60.978 404.538v-2.1h.321v.3a.756.756 0 0 1 .669-.346.877.877 0 0 1 .349.068.548.548 0 0 1 .238.179.69.69 0 0 1 .111.263 2.056 2.056 0 0 1 .02.347v1.292h-.356v-1.281a.954.954 0 0 0-.042-.325.34.34 0 0 0-.147-.172.467.467 0 0 0-.248-.064.576.576 0 0 0-.393.145.711.711 0 0 0-.165.548v1.148z" class="cls-4" transform="translate(107.782 -396.124)"/>
            <path id="Path_127" d="M-54.849 403.186l.052.315a1.318 1.318 0 0 1-.269.032.613.613 0 0 1-.3-.061.345.345 0 0 1-.15-.161 1.272 1.272 0 0 1-.044-.421v-1.21h-.261v-.28h.261v-.521l.354-.214v.734h.358v.277h-.358v1.229a.627.627 0 0 0 .019.2.15.15 0 0 0 .061.069.238.238 0 0 0 .122.026 1.169 1.169 0 0 0 .155-.014z" class="cls-4" transform="translate(104.686 -395.091)"/>
            <path id="Path_128" d="M-52.845 403.487a1.084 1.084 0 0 1 .325-.865.979.979 0 0 1 .661-.233.942.942 0 0 1 .708.284 1.079 1.079 0 0 1 .275.785 1.386 1.386 0 0 1-.124.642.863.863 0 0 1-.354.361 1.034 1.034 0 0 1-.508.129.945.945 0 0 1-.714-.283 1.131 1.131 0 0 1-.269-.82zm.366 0a.9.9 0 0 0 .176.6.564.564 0 0 0 .443.2.561.561 0 0 0 .441-.2.917.917 0 0 0 .176-.616.868.868 0 0 0-.177-.591.565.565 0 0 0-.44-.2.565.565 0 0 0-.443.2.89.89 0 0 0-.176.607z" class="cls-4" transform="translate(102.897 -396.124)"/>
        </g>
    </g>
</svg>
