<svg xmlns="http://www.w3.org/2000/svg" viewBox="0 0 219.58 212.07"><defs><style>.cls-1{fill:#fff;}</style></defs><g id="Layer_2" data-name="Layer 2"><g id="Layer_1-2" data-name="Layer 1"><path class="cls-1" d="M95.29,193.88a95.29,95.29,0,1,1,95.28-95.29A95.4,95.4,0,0,1,95.29,193.88ZM95.29,6a92.58,92.58,0,1,0,92.58,92.58A92.68,92.68,0,0,0,95.29,6Z"/><path class="cls-1" d="M160.72,0c35.51,21.86,58.86,58.83,58.86,100.76,0,46.17-28.31,86.33-70,106.92C184.15,182,206.23,143,206.23,99.28c0-38.82-17.41-73.95-45.51-99.28Z"/><path class="cls-1" d="M1.07,171.82a71,71,0,0,0,20.67,19.45A108.22,108.22,0,0,0,47.59,203a132.94,132.94,0,0,0,83.49-2,119.43,119.43,0,0,0,25.34-12.25A110.33,110.33,0,0,0,178,170.52a135.68,135.68,0,0,0,16.84-23,121.24,121.24,0,0,1-15.4,24.27c-1.59,1.8-3.08,3.72-4.77,5.45l-5.11,5.14-5.51,4.74c-1.88,1.53-3.87,2.91-5.81,4.38A111.75,111.75,0,0,1,132.53,205a118.91,118.91,0,0,1-28.37,6.36A135.77,135.77,0,0,1,47,204.92,109.4,109.4,0,0,1,21.12,192.2,71.66,71.66,0,0,1,1.07,171.82Z"/><path class="cls-1" d="M116.15,160.51h-67a19.33,19.33,0,0,1-19.3-19.31V46.87a19.33,19.33,0,0,1,19.3-19.31h67a19.33,19.33,0,0,1,19.31,19.31V141.2A19.33,19.33,0,0,1,116.15,160.51Zm-67-130.24a16.62,16.62,0,0,0-16.6,16.6V141.2a16.62,16.62,0,0,0,16.6,16.6h67a16.62,16.62,0,0,0,16.6-16.6V46.87a16.62,16.62,0,0,0-16.6-16.6Z"/><path class="cls-1" d="M31.2,51.44V46.87a18,18,0,0,1,18-17.95h67a18,18,0,0,1,18,17.95V51Zm70.06-8.09V41A3.29,3.29,0,0,0,98,37.73H66.06A3.29,3.29,0,0,0,62.77,41v2.33a3.29,3.29,0,0,0,3.29,3.29H98A3.3,3.3,0,0,0,101.26,43.35Z"/><path class="cls-1" d="M62.33,85.89H43.48V67H62.33ZM46.19,83.18H59.62V69.75H46.19Z"/><path class="cls-1" d="M62.33,111.91H43.48V93.06H62.33ZM46.19,109.2H59.62V95.77H46.19Z"/><path class="cls-1" d="M62.33,136.31H43.48V117.46H62.33ZM46.19,133.6H59.62V120.17H46.19Z"/><rect class="cls-1" x="72.14" y="72.73" width="38.41" height="2.71"/><rect class="cls-1" x="72.14" y="96.76" width="27.61" height="2.71"/><rect class="cls-1" x="72.14" y="123.16" width="6.3" height="2.71"/><path class="cls-1" d="M90.57,120l11.7,12.71L78.73,145.31a.52.52,0,0,1-.71-.69Z"/><path class="cls-1" d="M93.07,115.24,146.9,55.82a.86.86,0,0,1,1.21-.06l15.5,13.83a.87.87,0,0,1,0,1.25L105.8,129.27a.86.86,0,0,1-1.25,0L93.07,116.39A.86.86,0,0,1,93.07,115.24Z"/></g></g></svg>