<svg xmlns="http://www.w3.org/2000/svg" viewBox="0 0 255.95 212.07"><defs><style>.cls-1{fill:#fff;}</style></defs><g id="Layer_2" data-name="Layer 2"><g id="Layer_1-2" data-name="Layer 1"><path class="cls-1" d="M197.09,0C232.61,21.86,256,58.83,256,100.76c0,46.17-28.31,86.33-70,106.92C220.52,182,242.6,143,242.6,99.28c0-38.82-17.4-73.95-45.51-99.28Z"/><path class="cls-1" d="M131.38,193.88a95.29,95.29,0,1,1,95.29-95.29A95.4,95.4,0,0,1,131.38,193.88ZM131.38,6A92.58,92.58,0,1,0,224,98.59,92.68,92.68,0,0,0,131.38,6Z"/><path class="cls-1" d="M0,71.73A41.92,41.92,0,0,1,13.47,60.91c1.32-.68,2.72-1.15,4.11-1.74s2.87-.82,4.33-1.2c1.47-.23,3-.54,4.45-.69s3-.31,4.52-.35a96.05,96.05,0,0,1,18.11.9A76.86,76.86,0,0,1,65.9,62.3C76.53,66.31,86.66,70.63,97,72a39.05,39.05,0,0,0,15.43-.82,40.29,40.29,0,0,0,7.6-2.89c1.2-.68,2.52-1.25,3.69-2s2.39-1.57,3.66-2.34a36.23,36.23,0,0,1-12.68,12.59,39,39,0,0,1-18,5,68.68,68.68,0,0,1-18.28-2c-1.45-.33-2.89-.72-4.34-1.08l-4.26-1.2Q65.56,76,61.46,74.65a131,131,0,0,1-15.53-6.57c-5-2.4-10.06-4.73-15.43-5.85a33.17,33.17,0,0,0-16.25.65l-2,.71a13.53,13.53,0,0,0-1.93.8l-1.87,1A13.88,13.88,0,0,0,6.65,66.4C5.5,67.21,4.29,68,3.19,68.88S1.06,70.76,0,71.73Z"/><path class="cls-1" d="M42.62,75.63c-.06.14.16.23.26.31l.41.22.84.4c.57.25,1.15.48,1.73.7,1.15.45,2.32.87,3.5,1.27,2.34.81,4.71,1.54,7.1,2.22,4.75,1.4,9.55,2.61,14.37,3.6,9.63,2,19.39,3.34,28.92,3.09a57.26,57.26,0,0,0,13.76-2,44.94,44.94,0,0,0,11.7-5.07,33.25,33.25,0,0,0,8.94-8.49c2.65-3.53,4.86-7.77,7.5-12.53a25.74,25.74,0,0,1,0,16.21,27.34,27.34,0,0,1-10.37,13.83,34.65,34.65,0,0,1-15.87,5.85,72.91,72.91,0,0,1-16,.12A127.27,127.27,0,0,1,69.65,88.6q-7.16-2.52-14-5.62c-2.28-1.06-4.54-2.16-6.76-3.33-1.11-.58-2.21-1.18-3.29-1.82-.54-.32-1.08-.65-1.6-1-.26-.17-.52-.35-.77-.54a2.69,2.69,0,0,1-.37-.3C42.75,75.9,42.53,75.78,42.62,75.63Z"/><rect class="cls-1" x="164.76" y="59.43" width="40.82" height="21.6"/><rect class="cls-1" x="127.35" y="120.05" width="23.31" height="40.22"/><path class="cls-1" d="M57,107.57H85.53a18.55,18.55,0,0,0,18.55,18.85h21.07v29.34h-28A40.16,40.16,0,0,1,57,115.61Z"/><path class="cls-1" d="M200.48,85.83H170.62v21.62a17.71,17.71,0,0,1-17.71,17.7h-.3v29.26H161a39.53,39.53,0,0,0,39.53-39.53Z"/><path class="cls-1" d="M37.45,171.82a71,71,0,0,0,20.66,19.45A108.11,108.11,0,0,0,84,203a132.68,132.68,0,0,0,56.12,4.62A133.61,133.61,0,0,0,167.46,201a119.35,119.35,0,0,0,25.33-12.25,110.33,110.33,0,0,0,21.6-18.24,136.28,136.28,0,0,0,16.85-23,121.29,121.29,0,0,1-15.41,24.27c-1.59,1.8-3.08,3.72-4.76,5.45L206,182.37l-5.5,4.74c-1.89,1.53-3.88,2.91-5.82,4.38A111.55,111.55,0,0,1,168.9,205a118.69,118.69,0,0,1-28.37,6.36,135.7,135.7,0,0,1-57.18-6.47A109.4,109.4,0,0,1,57.5,192.2,71.66,71.66,0,0,1,37.45,171.82Z"/></g></g></svg>