<svg xmlns="http://www.w3.org/2000/svg" width="698" height="698" viewBox="0 0 698 698"><defs><style>.a{fill:#fff;}.b{fill:#006a71;}</style></defs><g transform="translate(20761 -87)"><rect class="a" width="698" height="698" transform="translate(-20761 87)"/><g transform="translate(-20866.287 -73.084)"><path class="b" d="M569.971,507.427c0,106.27-86.151,192.42-192.42,192.42S185.13,613.7,185.13,507.427,271.281,315.007,377.55,315.007s192.42,86.151,192.42,192.421Zm-13.923,0a178.5,178.5,0,1,0-178.5,178.5,178.5,178.5,0,0,0,178.5-178.5Zm-23.733,0A154.764,154.764,0,1,1,377.55,352.663,154.761,154.761,0,0,1,532.315,507.427Zm-13.4,0A141.365,141.365,0,1,0,377.55,648.793,141.362,141.362,0,0,0,518.916,507.427Zm-18.789,0A122.573,122.573,0,1,1,377.55,384.851,122.572,122.572,0,0,1,500.127,507.427Zm-230.431.518A106.833,106.833,0,1,0,376.529,401.106,106.832,106.832,0,0,0,269.7,507.945ZM612.31,270.651a289.694,289.694,0,0,1,127.612,240.3c0,110.121-61.377,205.9-151.785,255a333.452,333.452,0,0,0,24.172-495.3ZM363.942,233.924a288.478,288.478,0,0,1,60.348-11.84c137.442,22.338,242.363,141.588,242.363,285.343,0,153.448-119.544,278.971-270.582,288.52a288.076,288.076,0,0,1-58.515-17.584,276.712,276.712,0,0,0,39.994,2.9c151.234,0,273.83-122.6,273.83-273.837S528.785,233.6,377.55,233.6q-6.847,0-13.609.327ZM177.664,410.9a289.767,289.767,0,0,1,53.819-90.676A236.42,236.42,0,0,1,377.55,270c131.129,0,237.431,106.3,237.431,237.431S508.68,744.859,377.55,744.859a236.629,236.629,0,0,1-163.664-65.417,288.777,288.777,0,0,1-44.6-95.2c31.252,84.7,112.7,145.1,208.263,145.1,122.563,0,221.917-99.354,221.917-221.917S500.114,285.51,377.55,285.51A221.928,221.928,0,0,0,177.664,410.9Z" transform="translate(0 0)"/></g></g></svg>