<svg xmlns="http://www.w3.org/2000/svg" viewBox="0 0 219.86 212.07"><defs><style>.cls-1{fill:#fff;}</style></defs><g id="Layer_2" data-name="Layer 2"><g id="Layer_1-2" data-name="Layer 1"><path class="cls-1" d="M161,0c35.52,21.86,58.86,58.83,58.86,100.76,0,46.17-28.31,86.33-70,106.92C184.43,182,206.51,143,206.51,99.28,206.51,60.46,189.1,25.33,161,0Z"/><path class="cls-1" d="M95.29,193.88a95.29,95.29,0,1,1,95.28-95.29A95.4,95.4,0,0,1,95.29,193.88ZM95.29,6a92.58,92.58,0,1,0,92.58,92.58A92.68,92.68,0,0,0,95.29,6Z"/><path class="cls-1" d="M1.35,171.82A71.11,71.11,0,0,0,22,191.27,108.11,108.11,0,0,0,47.88,203,132.68,132.68,0,0,0,104,207.63,133.61,133.61,0,0,0,131.37,201a119.59,119.59,0,0,0,25.33-12.25,110.33,110.33,0,0,0,21.6-18.24,136.28,136.28,0,0,0,16.85-23,121.29,121.29,0,0,1-15.41,24.27c-1.59,1.8-3.08,3.72-4.77,5.45l-5.11,5.14-5.51,4.74c-1.88,1.53-3.87,2.91-5.81,4.38A111.55,111.55,0,0,1,132.81,205a118.8,118.8,0,0,1-28.37,6.36,135.77,135.77,0,0,1-57.19-6.47A109.4,109.4,0,0,1,21.4,192.2,71.79,71.79,0,0,1,1.35,171.82Z"/><path class="cls-1" d="M93,166.69c-38.46,0-69.75-30.31-69.75-67.55S54.54,31.59,93,31.59s69.74,30.3,69.74,67.55S131.45,166.69,93,166.69Zm0-131c-36.22,0-65.69,28.47-65.69,63.48S56.78,162.62,93,162.62s65.68-28.48,65.68-63.48S129.21,35.66,93,35.66Z"/><rect class="cls-1" x="90.97" y="33.62" width="4.06" height="131.03"/><rect class="cls-1" x="60.91" y="40.43" width="4.06" height="115.67"/><rect class="cls-1" x="120.83" y="40.43" width="4.06" height="115.67"/><rect class="cls-1" x="141.7" y="55.75" width="4.06" height="86.76"/><rect class="cls-1" x="42.21" y="53.57" width="4.06" height="91.03"/><rect class="cls-1" x="25.28" y="96.12" width="134.22" height="4.06"/><rect class="cls-1" x="31.64" y="71.39" width="123.65" height="4.06"/><rect class="cls-1" x="32.24" y="123.76" width="122.63" height="4.06"/><rect class="cls-1" x="47.97" y="145.48" width="90.7" height="4.06"/><rect class="cls-1" x="45.67" y="49.48" width="93.25" height="4.06"/><rect class="cls-1" x="49.05" y="90.38" width="7.88" height="14.81"/><rect class="cls-1" x="130.71" y="90.38" width="7.88" height="14.81"/><rect class="cls-1" x="64.68" y="90.38" width="56.48" height="14.81"/></g></g></svg>