<svg xmlns="http://www.w3.org/2000/svg" width="137" height="47.415" viewBox="0 0 137 47.415">
    <defs>
        <style>
            .cls-1,.cls-2{fill:#fff}.cls-2{fill-rule:evenodd}
        </style>
    </defs>
    <g id="Group_14" transform="translate(-169.288 -222.084)">
        <path id="Path_36" d="M202.394 245.66a15.9 15.9 0 1 1-15.9-15.9 15.9 15.9 0 0 1 15.9 15.9zm-1.15 0a14.748 14.748 0 1 0-14.744 14.749 14.748 14.748 0 0 0 14.748-14.748zm-1.961 0a12.787 12.787 0 1 1-12.783-12.787 12.787 12.787 0 0 1 12.787 12.787zm-1.107 0a11.68 11.68 0 1 0-11.68 11.68 11.68 11.68 0 0 0 11.68-11.68zm-1.552 0a10.128 10.128 0 1 1-10.124-10.127 10.127 10.127 0 0 1 10.128 10.128zm-19.039.043a8.827 8.827 0 1 0 8.827-8.828 8.827 8.827 0 0 0-8.827 8.828zm28.308-19.603a23.968 23.968 0 0 1-2 40.924 27.551 27.551 0 0 0 2-40.924zm-20.521-3.035a23.836 23.836 0 0 1 4.986-.978 23.89 23.89 0 0 1-2.332 47.415 23.8 23.8 0 0 1-4.835-1.453 22.864 22.864 0 0 0 3.3.24 22.625 22.625 0 0 0 0-45.251q-.566 0-1.124.027zm-15.392 14.62a23.942 23.942 0 0 1 4.447-7.492 19.618 19.618 0 1 1-1.454 29.68 23.86 23.86 0 0 1-3.685-7.865 18.336 18.336 0 1 0 .692-14.322z" class="cls-1"/>
        <g id="Group_8" transform="translate(221.758 232.893)">
            <path id="Path_37" d="M267.516 244.294h-1.26v-2.234h1.26v2.234zm0 10.718h-1.26v-9.575h1.26v9.575z" class="cls-2" transform="translate(-266.256 -242.06)"/>
            <path id="Path_38" d="M280.458 257.69h-1.294v-5.59a3.013 3.013 0 0 0-2.94-2.957 2.879 2.879 0 0 0-2.083.873 2.843 2.843 0 0 0-.874 2.083v5.594h-1.293v-5.46a4.222 4.222 0 0 1 1.209-3.091 4.32 4.32 0 0 1 6.065 0 4.224 4.224 0 0 1 1.209 3.091v5.46z" class="cls-1" transform="translate(-268.88 -244.739)"/>
            <path id="Path_39" d="M297.045 254.817a2.7 2.7 0 0 1-.907 2.251 3 3 0 0 1-2.319.857 2.951 2.951 0 0 1-2.032-.974 3.046 3.046 0 0 1-.806-2.116h1.327v.319a1.46 1.46 0 0 0 .538 1.008 1.562 1.562 0 0 0 1.142.5 1.78 1.78 0 0 0 1.276-.487 1.64 1.64 0 0 0 .437-1.142 1.69 1.69 0 0 0-1.394-1.68l-1.125-.353a2.6 2.6 0 0 1-1.109-4.3 2.857 2.857 0 0 1 1.932-.84 2.584 2.584 0 0 1 1.814.639 2.258 2.258 0 0 1 .924 1.68l.017.286h-1.344v-.218a.935.935 0 0 0-.437-.806 1.565 1.565 0 0 0-.974-.319 1.418 1.418 0 0 0-.941.386 1.283 1.283 0 0 0-.4.924q-.067 1.025 1.226 1.462l1.109.37a2.745 2.745 0 0 1 2.049 2.553z" class="cls-1" transform="translate(-277.602 -244.721)"/>
            <path id="Path_40" d="M306.59 244.294h-1.26v-2.234h1.26v2.234zm0 10.718h-1.26v-9.575h1.26v9.575z" class="cls-2" transform="translate(-284.187 -242.06)"/>
            <path id="Path_41" d="M321.3 250.331a4.918 4.918 0 0 1-8.467 3.494 5.073 5.073 0 0 1 .117-7.072 4.61 4.61 0 0 1 3.562-1.445 4.761 4.761 0 0 1 3.527 1.7v-4.821h1.26v8.147zm-1.294-.1a3.707 3.707 0 0 0-1.075-2.587 3.324 3.324 0 0 0-2.5-1.075 3.5 3.5 0 0 0-2.6 1.075 3.606 3.606 0 0 0-1.092 2.6 3.786 3.786 0 0 0 1.008 2.654 3.425 3.425 0 0 0 2.5 1.176 3.3 3.3 0 0 0 2.688-1.092 3.675 3.675 0 0 0 1.065-2.751z" class="cls-2" transform="translate(-286.996 -242.117)"/>
            <path id="Path_42" d="M342.914 253.289h-8.6a3.552 3.552 0 0 0 1.227 2.386 3.659 3.659 0 0 0 2.537.924 3.4 3.4 0 0 0 3.242-2.1h1.361a4.953 4.953 0 0 1-4.653 3.377 4.738 4.738 0 0 1-3.477-1.428 5.009 5.009 0 0 1-.034-7.207 4.711 4.711 0 0 1 3.712-1.445 4.918 4.918 0 0 1 3.326 1.579 4.6 4.6 0 0 1 1.361 3.225v.689zm-1.26-1.176a3.654 3.654 0 0 0-1.26-2.167 3.614 3.614 0 0 0-2.369-.857 3.667 3.667 0 0 0-3.713 3.024z" class="cls-2" transform="translate(-296.885 -244.688)"/>
            <path id="Path_43" d="M364.151 252.884a4.956 4.956 0 0 1-1.5 3.612 4.633 4.633 0 0 1-3.561 1.428 4.816 4.816 0 0 1-3.544-1.7v4.821h-1.243V252.9a4.864 4.864 0 0 1 1.5-3.562 4.827 4.827 0 0 1 6.955.067 4.865 4.865 0 0 1 1.394 3.478zm-1.277.1a3.726 3.726 0 0 0-1.008-2.637 3.4 3.4 0 0 0-2.5-1.193 3.347 3.347 0 0 0-2.7 1.092 3.761 3.761 0 0 0-1.082 2.754 3.709 3.709 0 0 0 1.075 2.587 3.38 3.38 0 0 0 2.52 1.075 3.525 3.525 0 0 0 2.587-1.075 3.664 3.664 0 0 0 1.109-2.6z" class="cls-2" transform="translate(-306.662 -244.736)"/>
            <path id="Path_44" d="M378.234 244.294h-1.26v-2.234h1.26v2.234zm0 10.718h-1.26v-9.575h1.26v9.575z" class="cls-2" transform="translate(-317.064 -242.06)"/>
            <path id="Path_45" d="M392.629 252.884a4.958 4.958 0 0 1-1.5 3.612 4.634 4.634 0 0 1-3.561 1.428 4.817 4.817 0 0 1-3.545-1.7v4.821h-1.243V252.9a4.862 4.862 0 0 1 1.5-3.562 4.826 4.826 0 0 1 6.954.067 4.865 4.865 0 0 1 1.394 3.478zm-1.277.1a3.728 3.728 0 0 0-1.008-2.637 3.4 3.4 0 0 0-2.5-1.193 3.345 3.345 0 0 0-2.7 1.092 3.76 3.76 0 0 0-1.082 2.754 3.706 3.706 0 0 0 1.075 2.587 3.378 3.378 0 0 0 2.519 1.075 3.527 3.527 0 0 0 2.588-1.075 3.666 3.666 0 0 0 1.108-2.6z" class="cls-2" transform="translate(-319.731 -244.736)"/>
            <path id="Path_46" d="M414.03 253.289h-8.6a3.552 3.552 0 0 0 1.227 2.386 3.659 3.659 0 0 0 2.536.924 3.4 3.4 0 0 0 3.243-2.1h1.36a4.953 4.953 0 0 1-4.654 3.377 4.738 4.738 0 0 1-3.477-1.428 5.009 5.009 0 0 1-.034-7.207 4.712 4.712 0 0 1 3.713-1.445 4.917 4.917 0 0 1 3.326 1.579 4.6 4.6 0 0 1 1.361 3.225v.689zm-1.26-1.176a3.657 3.657 0 0 0-1.26-2.167 3.614 3.614 0 0 0-2.369-.857 3.667 3.667 0 0 0-3.713 3.024z" class="cls-2" transform="translate(-329.52 -244.688)"/>
        </g>
        <path id="Rectangle_7" d="M0 0H84.506V0.283H0z" class="cls-1" transform="translate(221.756 250.742)"/>
        <g id="Group_9" transform="translate(221.745 252.376)">
            <path id="Path_47" d="M266.661 283.054h-.428V280h.38v.433a.894.894 0 0 1 .38-.38.942.942 0 0 1 .471-.112v.406a.742.742 0 0 0-.46.155 1.107 1.107 0 0 0-.241.252.921.921 0 0 0-.1.471z" class="cls-1" transform="translate(-266.233 -278.928)"/>
            <path id="Path_48" d="M273.951 282.028a1.542 1.542 0 0 1-.578.781 1.57 1.57 0 0 1-.9.294 1.514 1.514 0 0 1-1.108-.455 1.6 1.6 0 0 1-.011-2.3 1.5 1.5 0 0 1 1.182-.46 1.573 1.573 0 0 1 1.059.5 1.457 1.457 0 0 1 .434 1.027v.22h-2.74a1.124 1.124 0 0 0 .391.759 1.168 1.168 0 0 0 .808.295 1.082 1.082 0 0 0 1.033-.669zm-.326-.76a1.2 1.2 0 0 0-.4-.69 1.188 1.188 0 0 0-1.937.69z" class="cls-1" transform="translate(-268.36 -278.903)"/>
            <path id="Path_49" d="M282.281 283.039h-.4v-.476a1.487 1.487 0 0 1-1.22.545 1.508 1.508 0 0 1-1.076-.487 1.61 1.61 0 0 1 .032-2.253 1.46 1.46 0 0 1 1.14-.455 1.526 1.526 0 0 1 1.091.492 1.453 1.453 0 0 1 .429 1.1v1.531zm-2.724-1.557a1.187 1.187 0 0 0 .315.846 1.122 1.122 0 0 0 .8.38 1.065 1.065 0 0 0 .856-.348 1.2 1.2 0 0 0 .348-.883 1.183 1.183 0 0 0-.342-.824 1.061 1.061 0 0 0-.8-.343 1.123 1.123 0 0 0-.83.343 1.148 1.148 0 0 0-.347.829z" class="cls-1" transform="translate(-272.158 -278.914)"/>
            <path id="Path_50" d="M287.49 280.639v-2.573h.4v1.541a1.5 1.5 0 0 1 1.124-.541 1.456 1.456 0 0 1 1.135.454 1.6 1.6 0 0 1 .037 2.253 1.518 1.518 0 0 1-1.081.487 1.589 1.589 0 0 1-1.616-1.6zm2.408.841a1.178 1.178 0 0 0 .32-.846 1.15 1.15 0 0 0-.352-.825 1.11 1.11 0 0 0-.825-.347 1.059 1.059 0 0 0-.8.343 1.186 1.186 0 0 0-.343.824 1.174 1.174 0 0 0 .343.883 1.08 1.08 0 0 0 .856.348 1.113 1.113 0 0 0 .803-.38z" class="cls-1" transform="translate(-275.987 -278.066)"/>
            <path id="Path_51" d="M296.128 278.778h-.4v-.712h.4zm0 3.414h-.4v-3.051h.4z" class="cls-1" transform="translate(-279.767 -278.066)"/>
            <path id="Path_52" d="M299.485 282.192h-.407v-4.126h.407z" class="cls-1" transform="translate(-281.305 -278.066)"/>
            <path id="Path_53" d="M302.861 278.778h-.4v-.712h.4zm0 3.414h-.4v-3.051h.4z" class="cls-1" transform="translate(-282.857 -278.066)"/>
            <path id="Path_54" d="M306.925 282.26c-.743 0-1.113-.315-1.113-.947v-3.237h.412v1.064h.7v.38h-.7v1.723a.61.61 0 0 0 .7.68z" class="cls-1" transform="translate(-284.396 -278.071)"/>
            <path id="Path_55" d="M313.437 283.039h-.4v-.476a1.487 1.487 0 0 1-1.22.545 1.509 1.509 0 0 1-1.076-.487 1.611 1.611 0 0 1 .032-2.253 1.46 1.46 0 0 1 1.14-.455 1.527 1.527 0 0 1 1.092.492 1.452 1.452 0 0 1 .428 1.1v1.531zm-2.724-1.557a1.185 1.185 0 0 0 .316.846 1.122 1.122 0 0 0 .8.38 1.066 1.066 0 0 0 .856-.348 1.2 1.2 0 0 0 .348-.883 1.186 1.186 0 0 0-.343-.824 1.061 1.061 0 0 0-.8-.343 1.122 1.122 0 0 0-.83.343 1.147 1.147 0 0 0-.347.829z" class="cls-1" transform="translate(-286.456 -278.914)"/>
            <path id="Path_56" d="M321.785 282.223a1.565 1.565 0 0 1-1.488.878 1.633 1.633 0 0 1-1.145-.465 1.564 1.564 0 0 1-.016-2.253 1.669 1.669 0 0 1 2.06-.235 1.428 1.428 0 0 1 .568.621l.059.134h-.46a1.214 1.214 0 0 0-1.895-.262 1.131 1.131 0 0 0-.39.861 1.215 1.215 0 0 0 1.225 1.2 1.191 1.191 0 0 0 1.065-.573h.46z" class="cls-1" transform="translate(-290.294 -278.905)"/>
            <path id="Path_57" d="M329.811 283.039h-.4v-.476a1.487 1.487 0 0 1-1.22.545 1.508 1.508 0 0 1-1.076-.487 1.609 1.609 0 0 1 .032-2.253 1.459 1.459 0 0 1 1.14-.455 1.525 1.525 0 0 1 1.091.492 1.454 1.454 0 0 1 .429 1.1v1.531zm-2.724-1.557a1.187 1.187 0 0 0 .315.846 1.123 1.123 0 0 0 .8.38 1.065 1.065 0 0 0 .856-.348 1.2 1.2 0 0 0 .348-.883 1.183 1.183 0 0 0-.342-.824 1.06 1.06 0 0 0-.8-.343 1.122 1.122 0 0 0-.829.343 1.151 1.151 0 0 0-.349.829z" class="cls-1" transform="translate(-293.969 -278.914)"/>
            <path id="Path_58" d="M337.693 282.654a1.474 1.474 0 0 1-1.134.455 1.493 1.493 0 0 1-1.081-.482 1.551 1.551 0 0 1-.439-1.108 1.57 1.57 0 0 1 .476-1.146 1.461 1.461 0 0 1 1.135-.46 1.5 1.5 0 0 1 1.081.492 1.6 1.6 0 0 1-.038 2.248zm-1.129.054a1.049 1.049 0 0 0 .856-.348 1.19 1.19 0 0 0 .348-.878 1.215 1.215 0 0 0-.348-.825 1.05 1.05 0 0 0-.792-.342 1.106 1.106 0 0 0-.83.342 1.153 1.153 0 0 0-.348.829 1.188 1.188 0 0 0 .316.846 1.086 1.086 0 0 0 .798.376z" class="cls-1" transform="translate(-297.808 -278.914)"/>
        </g>
        <g id="Group_10" transform="translate(265.14 252.447)">
            <path id="Path_59" d="M349.567 280.793a1.487 1.487 0 0 1-.472 1.14 1.512 1.512 0 0 1-1.145.455 1.494 1.494 0 0 1-1.081-.482 1.615 1.615 0 0 1 .037-2.253 1.458 1.458 0 0 1 1.134-.46 1.51 1.51 0 0 1 1.124.54V278.2h.4zm-1.612 1.193a1.049 1.049 0 0 0 .857-.348 1.165 1.165 0 0 0 .343-.878 1.191 1.191 0 0 0-.343-.824 1.052 1.052 0 0 0-.8-.343 1.109 1.109 0 0 0-.829.343 1.144 1.144 0 0 0-.348.829 1.187 1.187 0 0 0 .32.846 1.085 1.085 0 0 0 .8.375z" class="cls-1" transform="translate(-346.43 -278.197)"/>
            <path id="Path_60" d="M357.887 282.12a1.545 1.545 0 0 1-.577.781 1.575 1.575 0 0 1-.9.294 1.518 1.518 0 0 1-1.108-.455 1.6 1.6 0 0 1-.011-2.3 1.5 1.5 0 0 1 1.183-.46 1.576 1.576 0 0 1 1.059.5 1.456 1.456 0 0 1 .433 1.028v.22h-2.74a1.124 1.124 0 0 0 .391.76 1.17 1.17 0 0 0 .808.295 1.081 1.081 0 0 0 1.033-.669zm-.326-.76a1.188 1.188 0 0 0-.4-.69 1.188 1.188 0 0 0-1.937.69z" class="cls-1" transform="translate(-350.273 -279.016)"/>
        </g>
        <g id="Group_11" transform="translate(275.861 252.483)">
            <path id="Path_61" d="M369.354 282.4a1.561 1.561 0 0 1-1.483.874 1.627 1.627 0 0 1-1.141-.464 1.56 1.56 0 0 1-.016-2.246 1.667 1.667 0 0 1 2.054-.234 1.428 1.428 0 0 1 .565.618l.058.134h-.458a1.209 1.209 0 0 0-1.888-.261 1.123 1.123 0 0 0-.39.859 1.209 1.209 0 0 0 1.221 1.2 1.185 1.185 0 0 0 1.062-.57h.459z" class="cls-1" transform="translate(-366.244 -279.096)"/>
            <path id="Path_62" d="M376.882 282.828a1.469 1.469 0 0 1-1.13.453 1.49 1.49 0 0 1-1.078-.48 1.546 1.546 0 0 1-.437-1.1 1.564 1.564 0 0 1 .475-1.142 1.456 1.456 0 0 1 1.131-.459 1.5 1.5 0 0 1 1.077.491 1.591 1.591 0 0 1-.037 2.241zm-1.125.053a1.046 1.046 0 0 0 .853-.346 1.189 1.189 0 0 0 .347-.876 1.212 1.212 0 0 0-.347-.821 1.046 1.046 0 0 0-.789-.341 1.1 1.1 0 0 0-.826.341 1.139 1.139 0 0 0-.347.827 1.179 1.179 0 0 0 .314.843 1.079 1.079 0 0 0 .795.373z" class="cls-1" transform="translate(-369.912 -279.104)"/>
            <path id="Path_63" d="M385.218 283.217h-.411v-1.776a.9.9 0 0 0-.283-.662.883.883 0 0 0-.65-.278.948.948 0 0 0-.939.939v1.776h-.411v-1.734a1.345 1.345 0 0 1 .384-.982 1.372 1.372 0 0 1 1.925 0 1.344 1.344 0 0 1 .385.982z" class="cls-1" transform="translate(-373.715 -279.11)"/>
            <path id="Path_64" d="M393.3 280.88a1.486 1.486 0 0 1-.47 1.136 1.507 1.507 0 0 1-1.141.453 1.487 1.487 0 0 1-1.077-.48 1.544 1.544 0 0 1-.438-1.1 1.565 1.565 0 0 1 .475-1.142 1.456 1.456 0 0 1 1.131-.458 1.507 1.507 0 0 1 1.121.538v-1.53h.4zm-1.607 1.189a1.042 1.042 0 0 0 .853-.347 1.159 1.159 0 0 0 .342-.874 1.183 1.183 0 0 0-.342-.821 1.047 1.047 0 0 0-.794-.341 1.1 1.1 0 0 0-.826.341 1.139 1.139 0 0 0-.347.827 1.183 1.183 0 0 0 .32.843 1.08 1.08 0 0 0 .793.373z" class="cls-1" transform="translate(-377.224 -278.278)"/>
            <path id="Path_65" d="M401.208 281.969a1.354 1.354 0 0 1-.385.986 1.271 1.271 0 0 1-.959.395 1.291 1.291 0 0 1-.965-.395 1.374 1.374 0 0 1-.379-.986v-1.734h.411v1.782a.9.9 0 0 0 .277.661.911.911 0 0 0 .656.272.946.946 0 0 0 .933-.933v-1.782h.411z" class="cls-1" transform="translate(-381.055 -279.168)"/>
            <path id="Path_66" d="M407.207 282.435c-.741 0-1.109-.314-1.109-.944v-3.227h.411v1.061h.7v.379h-.7v1.717a.608.608 0 0 0 .7.677z" class="cls-1" transform="translate(-384.533 -278.264)"/>
            <path id="Path_67" d="M413.7 283.212h-.4v-.475a1.483 1.483 0 0 1-1.216.544 1.5 1.5 0 0 1-1.072-.485 1.6 1.6 0 0 1 .032-2.246 1.455 1.455 0 0 1 1.136-.453 1.525 1.525 0 0 1 1.089.491 1.451 1.451 0 0 1 .426 1.1v1.526zm-2.715-1.553a1.177 1.177 0 0 0 .314.843 1.113 1.113 0 0 0 .795.379 1.063 1.063 0 0 0 .853-.346 1.2 1.2 0 0 0 .347-.88 1.185 1.185 0 0 0-.342-.821 1.057 1.057 0 0 0-.794-.341 1.117 1.117 0 0 0-.826.341 1.138 1.138 0 0 0-.348.825z" class="cls-1" transform="translate(-386.586 -279.104)"/>
            <path id="Path_68" d="M419.332 282.411a.581.581 0 0 0 .533.479.573.573 0 0 0 .406-.154.524.524 0 0 0 .139-.363.534.534 0 0 0-.443-.533l-.358-.112a.825.825 0 0 1-.352-1.366.913.913 0 0 1 .614-.267.821.821 0 0 1 .576.2.721.721 0 0 1 .293.534l.006.09h-.427v-.069a.407.407 0 0 0-.447-.358.431.431 0 0 0-.427.416c-.015.219.117.373.39.464l.353.117a.871.871 0 0 1 .65.811.856.856 0 0 1-.288.715.964.964 0 0 1-.736.272.939.939 0 0 1-.645-.31.96.96 0 0 1-.257-.672h.422z" class="cls-1" transform="translate(-390.412 -279.104)"/>
        </g>
        <g id="Group_12" transform="translate(250.656 256.242)">
            <path id="Path_69" d="M320.042 286.194h-.379l.423-.983h.373z" class="cls-1" transform="translate(-319.663 -285.211)"/>
        </g>
        <g id="Group_13" transform="translate(255.052 252.045)">
            <path id="Path_70" d="M329.883 277.925a.491.491 0 0 1-.155.134.837.837 0 0 1-.257.1.889.889 0 0 1-.444-.1l-.332-.14a.613.613 0 0 0-.3-.069.452.452 0 0 0-.321.23l-.1.171-.187-.2.075-.129a.74.74 0 0 1 .487-.4.807.807 0 0 1 .4.064l.46.188a.506.506 0 0 0 .23.048.386.386 0 0 0 .316-.187l.107-.182.193.224z" class="cls-1" transform="translate(-327.786 -277.455)"/>
        </g>
        <path id="Rectangle_8" d="M0 0H84.506V0.283H0z" class="cls-1" transform="translate(221.749 258.221)"/>
    </g>
</svg>
