<svg xmlns="http://www.w3.org/2000/svg" width="22.584" height="19.713" viewBox="0 0 22.584 19.713">
    <defs>
        <style>
            .cls-1,.cls-2{fill:#006a71}.cls-2{fill-rule:evenodd}
        </style>
    </defs>
    <g id="Group_136" transform="translate(19034.398 204)">
        <g id="Group_105" transform="translate(-19034.398 -204)">
            <path id="Path_152" d="M.138.292L2.581 0l-.138 1.259L0 1.551z" class="cls-1" transform="rotate(-35.032 29.218 9.222)"/>
            <path id="Path_153" d="M.292.138L1.551 0l-.292 2.443L0 2.581z" class="cls-1" transform="rotate(-54.97 1.22 .635)"/>
            <path id="Path_151" d="M601.043 601.625l-7.857-7.033-.609 1.111 7 6.268-7 6.268.609 1.111 7.857-7.033.387-.339z" class="cls-2" transform="translate(-589.527 -592.114)"/>
        </g>
        <g id="Group_134" transform="translate(-19023.717 -204)">
            <path id="Path_154" d="M0 0l2.443.292.138 1.259-2.443-.292z" class="cls-1" transform="rotate(-144.968 8.617 8.119)"/>
            <path id="Path_155" d="M0 0l1.259.138.292 2.443-1.259-.138z" class="cls-1" transform="rotate(-125.026 5.61 -1.17)"/>
            <path id="Path_151-2" d="M592.963 601.625l7.857-7.033.609 1.111-7 6.268 7 6.268-.609 1.111-7.857-7.033-.387-.339z" class="cls-2" transform="translate(-592.576 -592.114)"/>
        </g>
    </g>
</svg>
