<svg xmlns="http://www.w3.org/2000/svg" viewBox="0 0 219.58 212.07"><defs><style>.cls-1{fill:#fff;}</style></defs><g id="Layer_2" data-name="Layer 2"><g id="Layer_1-2" data-name="Layer 1"><path class="cls-1" d="M95.29,193.88a95.29,95.29,0,1,1,95.28-95.29A95.4,95.4,0,0,1,95.29,193.88ZM95.29,6a92.58,92.58,0,1,0,92.58,92.58A92.68,92.68,0,0,0,95.29,6Z"/><path class="cls-1" d="M9.2,86.41A42.06,42.06,0,0,1,22.67,75.59c1.32-.68,2.73-1.15,4.11-1.73s2.87-.83,4.33-1.21c1.47-.22,3-.54,4.46-.68s3-.32,4.51-.35a96,96,0,0,1,18.11.89A77.27,77.27,0,0,1,75.1,77c10.63,4,20.76,8.33,31.07,9.72a38.2,38.2,0,0,0,23-3.71c1.2-.67,2.52-1.25,3.69-2s2.39-1.57,3.66-2.34A36.4,36.4,0,0,1,123.87,91.2a39.15,39.15,0,0,1-18,5,69.12,69.12,0,0,1-18.29-1.94c-1.45-.34-2.89-.73-4.34-1.09L79,92c-2.8-.87-5.56-1.75-8.28-2.66a128.86,128.86,0,0,1-15.54-6.57c-5-2.4-10.06-4.73-15.43-5.85a33.17,33.17,0,0,0-16.25.65l-1.95.71a12.22,12.22,0,0,0-1.94.81l-1.87,1a13.36,13.36,0,0,0-1.84,1c-1.15.81-2.36,1.57-3.45,2.48S10.26,85.44,9.2,86.41Z"/><path class="cls-1" d="M51.82,90.31c0,.15.17.23.27.31s.26.16.4.23.56.27.84.39c.57.25,1.15.48,1.73.7,1.16.45,2.32.87,3.5,1.28,2.35.8,4.72,1.53,7.1,2.22C70.41,96.83,75.21,98,80,99c9.63,2,19.39,3.34,28.92,3.09a56.77,56.77,0,0,0,13.76-2,44.94,44.94,0,0,0,11.7-5.07,33.14,33.14,0,0,0,9-8.49c2.64-3.53,4.85-7.77,7.5-12.52a25.74,25.74,0,0,1,0,16.21,27.32,27.32,0,0,1-10.37,13.82A34.65,34.65,0,0,1,124.64,110a72.9,72.9,0,0,1-16,.12,126.39,126.39,0,0,1-29.83-6.81q-7.16-2.52-14-5.62c-2.28-1.06-4.54-2.16-6.76-3.33-1.1-.58-2.21-1.18-3.29-1.81-.54-.33-1.07-.65-1.6-1-.26-.17-.52-.35-.77-.54s-.25-.19-.37-.29S51.74,90.46,51.82,90.31Z"/><path class="cls-1" d="M160.72,0c35.51,21.86,58.86,58.83,58.86,100.76,0,46.17-28.31,86.33-70,106.92C184.14,182,206.23,143,206.23,99.28c0-38.82-17.41-73.95-45.51-99.28Z"/><path class="cls-1" d="M1.07,171.82a71,71,0,0,0,20.67,19.45A108.22,108.22,0,0,0,47.59,203a132.94,132.94,0,0,0,83.49-2,119.43,119.43,0,0,0,25.34-12.25A110.33,110.33,0,0,0,178,170.52a135.68,135.68,0,0,0,16.84-23,121.24,121.24,0,0,1-15.4,24.27c-1.59,1.8-3.08,3.72-4.77,5.45l-5.11,5.14-5.51,4.74c-1.88,1.53-3.87,2.91-5.81,4.38A111.75,111.75,0,0,1,132.53,205a118.88,118.88,0,0,1-28.38,6.36A135.74,135.74,0,0,1,47,204.92,109.4,109.4,0,0,1,21.12,192.2,71.66,71.66,0,0,1,1.07,171.82Z"/><path class="cls-1" d="M107.45,142.18A57.65,57.65,0,1,1,165.1,84.54,57.71,57.71,0,0,1,107.45,142.18Zm0-111.23A53.59,53.59,0,1,0,161,84.54,53.65,53.65,0,0,0,107.45,31Z"/></g></g></svg>